<svg width="15" height="15" viewBox="0 0 15 15" fill="none" xmlns="http://www.w3.org/2000/svg">
<path d="M6.5 6.5V7.5H7.5V6.5H6.5ZM6.5 8.5H7.5V7.5H6.5V8.5ZM8.5 8.5V7.5H7.5V8.5H8.5ZM8.5 6.5H7.5V7.5H8.5V6.5ZM7.5 2H9.5C9.5 0.89543 8.60457 0 7.5 0V2ZM7.5 2V0C6.39543 0 5.5 0.89543 5.5 2H7.5ZM7.5 6.5V2H5.5V6.5H7.5ZM2 7.5H6.5V5.5H2V7.5ZM2 7.5V5.5C0.89543 5.5 0 6.39543 0 7.5H2ZM2 7.5H0C0 8.60457 0.89543 9.5 2 9.5V7.5ZM6.5 7.5H2V9.5H6.5V7.5ZM7.5 13V8.5H5.5V13H7.5ZM7.5 13H5.5C5.5 14.1046 6.39543 15 7.5 15V13ZM7.5 13V15C8.60457 15 9.5 14.1046 9.5 13H7.5ZM7.5 8.5V13H9.5V8.5H7.5ZM13 7.5H8.5V9.5H13V7.5ZM13 7.5V9.5C14.1046 9.5 15 8.60457 15 7.5H13ZM13 7.5H15C15 6.39543 14.1046 5.5 13 5.5V7.5ZM8.5 7.5H13V5.5H8.5V7.5ZM7.5 2V6.5H9.5V2H7.5Z" fill="white"/>
</svg>
