<svg width="331" height="106" viewBox="0 0 331 106" fill="none" xmlns="http://www.w3.org/2000/svg">
<path fill-rule="evenodd" clip-rule="evenodd" d="M19.0079 20.169C39.837 -2.06551 67.7612 -6.56486 85.602 9.91598C103.443 26.3968 104.391 71.8833 85.602 91.9398C66.8132 111.996 23.5086 105.562 8.76269 91.9398C-5.98319 78.3179 -1.82115 42.4034 19.0079 20.169Z" fill="#F8D57E"/>
<path d="M49.7436 40.6749V66.3074" stroke="white" stroke-width="2.32143" stroke-linecap="round"/>
<path d="M36.9371 53.4911H62.5502" stroke="white" stroke-width="2.32143" stroke-linecap="round"/>
<path d="M142.355 51.5973V42.94H136.163V34.5232L127.145 37.2286V42.94H122.335V51.5973H127.145V62.2385C127.145 70.6553 130.572 74.2024 142.355 73V64.8237C138.387 65.0642 136.163 64.8237 136.163 62.2385V51.5973H142.355ZM168.698 42.94V45.7656C166.714 43.4811 163.768 42.0983 159.74 42.0983C151.864 42.0983 145.371 49.0121 145.371 57.97C145.371 66.9279 151.864 73.8417 159.74 73.8417C163.768 73.8417 166.714 72.4589 168.698 70.1744V73H177.716V42.94H168.698ZM161.543 65.3046C157.395 65.3046 154.389 62.479 154.389 57.97C154.389 53.461 157.395 50.6354 161.543 50.6354C165.692 50.6354 168.698 53.461 168.698 57.97C168.698 62.479 165.692 65.3046 161.543 65.3046ZM192.575 51.7175C192.575 50.6354 193.537 50.0342 195.1 50.0342C197.084 50.0342 198.286 51.1163 199.128 52.6794L206.823 48.5312C204.298 44.2626 199.97 42.0983 195.1 42.0983C188.848 42.0983 183.317 45.4049 183.317 51.958C183.317 62.3588 198.106 60.6153 198.106 63.9219C198.106 65.1243 197.024 65.7856 194.86 65.7856C192.214 65.7856 190.531 64.5231 189.749 62.2385L181.934 66.6874C184.278 71.5571 188.848 73.8417 194.86 73.8417C201.353 73.8417 207.365 70.8958 207.365 63.982C207.365 52.8598 192.575 55.1444 192.575 51.7175ZM240.725 73L229.482 57.97L240.424 42.94H229.903L220.885 56.1063V30.916H211.867V73H220.885V59.7135L230.504 73H240.725ZM244.041 73H253.059V29.1124H244.041V73ZM278.595 42.94L272.944 61.3367L266.271 42.94H256.351L268.315 71.6172C266.992 75.2846 265.008 76.6072 260.8 76.6072V85.024C269.217 85.4448 274.567 81.6573 277.934 72.0982L288.215 42.94H278.595Z" fill="black"/>
</svg>
